PathFileType	3	(X/Y/Z)	D:\Vicon Setup\UG\Test1\New Session\NewSession12.trc
DataRate	CameraRate	NumFrames	NumMarkers	Units	OrigDataRate	OrigDataStartFrame	OrigNumFrames
100.0	100.0	5	27	mm	100.0	385	351	
Frame#	Time	Sternum			LShoulder			RShoulder			LASIS			RASIS			RPSIS			LPSIS			RKneeLateral			RKneeMedial			RFibulaHead			RMidShank			RAnkleLateral			RAnkleMedial			RHeel			RMT5			RMT2			RToe			LKneeLateral			LKneeMedial			LFibulaHead			LMidShank			LAnkleLateral			LAnkleMedial			LHeel			LMT5			LMT2			LToe			
		X1	Y1	Z1	X2	Y2	Z2	X3	Y3	Z3	X4	Y4	Z4	X5	Y5	Z5	X6	Y6	Z6	X7	Y7	Z7	X8	Y8	Z8	X9	Y9	Z9	X10	Y10	Z10	X11	Y11	Z11	X12	Y12	Z12	X13	Y13	Z13	X14	Y14	Z14	X15	Y15	Z15	X16	Y16	Z16	X17	Y17	Z17	X18	Y18	Z18	X19	Y19	Z19	X20	Y20	Z20	X21	Y21	Z21	X22	Y22	Z22	X23	Y23	Z23	X24	Y24	Z24	X25	Y25	Z25	X26	Y26	Z26	X27	Y27	Z27	
385	3.84	-191.98332	1371.9935	1151.3792	-386.07205	1436.038	1240.658	-11.490205	1416.4189	1238.0354	-311.15335	996.21924	1209.3682	-56.611263	1011.5344	1220.8444	-132.26437	1022.067	1389.3162	-262.98862	1021.6768	1388.2172	-5.336926	551.06769	1143.7777	-128.0162	531.17371	1093.6117	-0.99994743	481.17636	1163.149	-88.375008	324.69412	1206.0665	-55.263599	182.02641	1359.4351	-119.26661	178.86981	1286.5774	-130.34093	190.46838	1412.5966	10.518282	52.130856	1280.0303	-50.138691	78.492271	1243.6854	-39.897469	51.449772	1212.6816	-317.86151	513.07593	1255.3459	-188.31068	504.79163	1235.9661	-317.34702	450.86078	1274.6965	-228.53484	297.54956	1260.4912	-267.69864	100.62416	1342.3976	-186.06342	119.15732	1299.2357	-204.19897	71.449684	1413.8448	-315.83679	39.271927	1216.4122	-253.09753	57.314873	1194.8759	-255.82292	36.758186	1133.328
386	3.85	-192.95018	1372.517	1137.3732	-387.01639	1436.8872	1226.1743	-12.539188	1416.6876	1224.7693	-312.73819	995.84033	1198.1328	-58.40229	1012.4543	1206.3782	-132.11116	1022.8705	1375.1843	-262.84085	1022.2646	1374.9188	-7.6322918	552.80365	1123.9335	-130.20007	533.60675	1077.4852	-3.3580358	481.06647	1141.2562	-90.986084	322.69241	1176.2789	-57.410511	171.21407	1321.053	-121.6068	172.57616	1248.1471	-132.31726	175.47971	1375.0905	8.9545622	47.816711	1232.55	-51.636372	76.753067	1198.29	-41.718918	51.655075	1165.5079	-317.68762	513.64008	1250.9508	-187.97812	505.453	1231.5175	-317.07507	451.68069	1271.0608	-228.41803	298.11218	1257.9409	-267.96558	102.17206	1341.8663	-185.99722	119.93539	1298.0748	-204.15584	73.216911	1413.1265	-315.84662	39.21336	1216.3348	-252.81306	56.644524	1195.0092	-255.95268	36.546978	1133.1241
387	3.86	-193.42853	1372.3264	1125.678	-388.11621	1437.6282	1211.8062	-13.484475	1416.6923	1211.5107	-314.92719	996.69934	1182.3705	-60.237381	1012.6688	1191.7277	-131.87247	1023.334	1361.0972	-262.55548	1022.6288	1361.5723	-9.8997602	554.03821	1104.938	-132.66408	536.5213	1059.7161	-5.7462945	480.44794	1119.7384	-93.572708	320.37653	1146.5206	-59.40274	160.2742	1281.8593	-123.90992	166.08142	1208.6448	-134.04008	160.48656	1336.3478	7.2257752	43.766911	1184.7374	-53.474945	74.956734	1152.7227	-43.506889	52.562473	1118.3342	-317.56982	514.40063	1246.5596	-187.82472	505.68069	1226.4813	-316.71851	452.52859	1267.2196	-228.32904	298.6618	1255.3188	-267.60318	103.20704	1340.8538	-186.27094	120.75326	1297.0958	-204.10457	75.025116	1412.37	-315.90268	39.178349	1216.4796	-252.92438	56.666908	1194.4349	-255.94283	36.270538	1132.6339
388	3.87	-194.26921	1372.1703	1111.6146	-388.96164	1437.9396	1197.3917	-14.317829	1416.2599	1197.9377	-316.67352	996.41492	1169.4525	-61.953125	1012.4712	1177.069	-131.53841	1023.4926	1346.8936	-262.21375	1022.7731	1348.1445	-11.992078	554.77472	1086.7919	-135.26845	539.52667	1040.8374	-8.1078606	479.28928	1098.6881	-96.183907	318.02719	1116.7727	-60.901894	149.6086	1242.2777	-125.9159	159.90926	1169.5941	-135.76532	145.24284	1296.254	5.5828266	40.194363	1136.5983	-55.355091	73.668945	1107.3839	-45.395611	53.758583	1071.0404	-317.43979	514.86316	1241.8051	-187.61758	505.93948	1221.6061	-316.41077	453.43036	1263.3118	-228.12852	298.98706	1252.6285	-267.40387	104.31567	1339.8927	-186.061	121.37221	1295.7325	-203.96823	76.772606	1411.6016	-315.92657	39.156319	1216.3315	-252.97537	56.709469	1193.881	-256.00116	36.07486	1132.4838
389	3.88	-194.87172	1372.6056	1095.512	-389.66763	1437.9441	1182.8994	-15.108727	1415.6499	1184.3206	-318.24814	995.86841	1156.5493	-63.382046	1011.9132	1162.3604	-131.18144	1023.3807	1332.6986	-261.77484	1022.7901	1334.8014	-13.879704	554.81213	1069.0206	-137.71779	540.88055	1024.3473	-10.410104	477.59091	1078.2236	-98.942055	316.2612	1085.2606	-62.692703	138.42816	1200.9807	-126.84794	154.23309	1131.0331	-137.01082	130.45154	1255.3903	3.8365312	37.458935	1088.1488	-57.212727	72.803688	1061.6708	-47.296524	55.976765	1023.7693	-317.38962	515.19501	1236.7615	-187.38417	506.07758	1216.9669	-316.02814	454.17764	1259.2992	-227.912	299.47787	1249.9879	-267.25375	105.52949	1339.0094	-186.33372	122.15987	1294.2197	-203.98979	78.603447	1410.8368	-315.93005	39.145699	1216.1716	-252.99472	56.451057	1193.8148	-256.0835	35.866066	1132.3091
